# xmcd
#
# Track frame offsets: 
#        150
#        18913
#        43609
#        84604
#        106610
#        139963
#        149810
#        165850
#        183105
#        249025
#
# Disc length: 3797 seconds
#
# Revision: 0
# Processed by: cddbd v1.5.2PL0 Copyright (c) Steve Scherf et al.
# Submitted via: ExactAudioCopy v0.99pb5
#
DISCID=750ed30a
DTITLE=Various Artist - The Blues
DYEAR=1900
DGENRE=Blues
TTITLE0=Mica Paris and David Gilmour - I Put A Spell On You
TTITLE1=Pink Floyd - Just Another 12 Bar
TTITLE2=Pink Floyd - More Blues
TTITLE3=Pink Floyd - Blues 1
TTITLE4=Pink Floyd - Blues 2
TTITLE5=Pink Floyd - Seamus
TTITLE6=Fleetwood Mac - Jumping At Shadows
TTITLE7=Jimi Hendrix - Red House
TTITLE8=Jimi Hendrix - Voodoo Chile
TTITLE9=Jimi Hendrix - Georgia Blues
EXTD=
EXTT0=
EXTT1=
EXTT2=
EXTT3=
EXTT4=
EXTT5=
EXTT6=
EXTT7=
EXTT8=
EXTT9=
PLAYORDER=
